<svg width="24" height="24" viewBox="0 0 24 24" fill="none" xmlns="http://www.w3.org/2000/svg">
<g clip-path="url(#clip0)">
<path d="M12.1179 5.46603C11.9075 5.46416 11.6979 5.49108 11.4949 5.54603C11.2169 5.61303 10.7929 5.87803 10.5419 6.12903C10.1319 6.55203 10.0519 6.73803 9.87988 7.59803C9.79988 8.02103 10.2899 9.02803 10.7269 9.33203C11.1769 9.64903 11.8119 9.83403 12.7919 9.94003C14.2209 10.1 14.6319 10.576 14.6319 12.137C14.6319 13.514 14.2469 13.884 12.6719 14.043C10.9649 14.215 10.0919 14.877 9.90688 16.16C9.80088 16.941 10.3169 17.92 11.0319 18.251C12.6589 19.019 14.1819 18.053 14.4989 16.055C14.7099 14.771 15.1209 14.413 16.4969 14.308C18.0849 14.175 18.9059 13.633 19.2099 12.521C19.4879 11.501 18.9059 10.364 17.9129 9.96703C17.6489 9.86103 17.0399 9.72903 16.5629 9.67603C15.0679 9.51603 14.6839 9.25203 14.5249 8.28603C14.2999 6.94903 14.2079 6.72403 13.7309 6.19603C13.5283 5.968 13.28 5.78516 13.0021 5.65939C12.7242 5.53362 12.4229 5.46774 12.1179 5.46603V5.46603ZM7.33288 9.82603C7.16591 9.82263 6.99911 9.83874 6.83588 9.87403C5.36688 10.192 4.66588 11.925 5.48588 13.169C6.66388 14.943 9.42988 14.122 9.45588 11.992C9.46788 10.799 8.47588 9.84903 7.33288 9.82603V9.82603ZM2.08888 14.19C1.9452 14.1935 1.80219 14.2109 1.66188 14.242C-0.496121 14.718 -0.575121 17.868 1.55588 18.424C2.08588 18.569 2.13788 18.569 2.66688 18.437C3.85788 18.119 4.53288 16.981 4.21588 15.83C3.93788 14.81 3.07188 14.166 2.08888 14.19V14.19ZM21.9129 14.198C21.6799 14.2 21.4359 14.256 21.1289 14.36C19.7389 14.837 19.2629 16.452 20.1489 17.696C20.7059 18.49 22.1089 18.754 22.9689 18.212C24.3849 17.338 24.3319 15.155 22.8759 14.466C22.4959 14.28 22.2129 14.195 21.9129 14.198V14.198Z" fill="black"/>
</g>
<defs>
<clipPath id="clip0">
<rect width="24" height="24" fill="white"/>
</clipPath>
</defs>
</svg>
